HIERARCHY
ROOT hip
{
	OFFSET 0.000000 0.000000 0.000000 
	CHANNELS 6 Xposition Yposition Zposition Xrotation Zrotation Yrotation
	JOINT abdomen
	{
		OFFSET 0.000000 3.402643 0.000000 
		CHANNELS 3 Xrotation Zrotation Yrotation
		JOINT chest
		{
			OFFSET 0.000000 8.438565 -0.680529 
			CHANNELS 3 Xrotation Zrotation Yrotation
			JOINT neck
			{
				OFFSET 0.000000 10.207942 -0.272212 
				CHANNELS 3 Xrotation Zrotation Yrotation
				JOINT head
				{
					OFFSET 0.000000 3.130431 0.000000 
					CHANNELS 3 Xrotation Zrotation Yrotation
					End Site
					{
						OFFSET 0.000000 3.130435 0.000000 
					}
				}
			}
			JOINT lCollar
			{
				OFFSET 3.470700 6.669187 -0.816635 
				CHANNELS 3 Yrotation Zrotation Xrotation
				JOINT lShldr
				{
					OFFSET 3.198488 0.000000 0.000000 
					CHANNELS 3 Zrotation Yrotation Xrotation
					JOINT lForeArm
					{
						OFFSET 10.139888 0.000000 0.000000 
						CHANNELS 3 Yrotation Zrotation Xrotation
						JOINT lHand
						{
							OFFSET 8.370511 0.000000 0.000000 
							CHANNELS 3 Zrotation Yrotation Xrotation
							End Site
							{
								OFFSET 4.083176 0.000000 0.000000 
							}
						}
					}
				}
			}
			JOINT rCollar
			{
				OFFSET -3.470700 6.669187 -0.816635 
				CHANNELS 3 Yrotation Zrotation Xrotation
				JOINT rShldr
				{
					OFFSET -3.198488 0.000000 0.000000 
					CHANNELS 3 Zrotation Yrotation Xrotation
					JOINT rForeArm
					{
						OFFSET -10.139888 0.000000 0.000000 
						CHANNELS 3 Yrotation Zrotation Xrotation
						JOINT rHand
						{
							OFFSET -8.370511 0.000000 0.000000 
							CHANNELS 3 Zrotation Yrotation Xrotation
							End Site
							{
								OFFSET -4.083176 0.000000 0.000000 
							}
						}
					}
				}
			}
		}
	}
	JOINT lThigh
	{
		OFFSET 5.308129 -1.633274 1.361059 
		CHANNELS 3 Xrotation Zrotation Yrotation
		JOINT lShin
		{
			OFFSET -2.041588 -20.007561 0.000000 
			CHANNELS 3 Xrotation Zrotation Yrotation
			JOINT lFoot
			{
				OFFSET 0.000000 -19.190928 -1.224953 
				CHANNELS 3 Xrotation Yrotation Zrotation
				End Site
				{
					OFFSET 0.000000 -2.449906 4.627600 
				}
			}
		}
	}
	JOINT rThigh
	{
		OFFSET -5.308129 -1.633274 1.361059 
		CHANNELS 3 Xrotation Zrotation Yrotation
		JOINT rShin
		{
			OFFSET 2.041588 -20.007561 0.000000 
			CHANNELS 3 Xrotation Zrotation Yrotation
			JOINT rFoot
			{
				OFFSET 0.000000 -19.190928 -1.224953 
				CHANNELS 3 Xrotation Yrotation Zrotation
				End Site
				{
					OFFSET 0.000000 -2.449906 4.627600 
				}
			}
		}
	}
}
MOTION
Frames: 11
Frame Time: 0.033333
-8.401335 37.236607 -196.067810 -12.031255 -0.047756 -7.255448 37.312595 -5.417493 7.267666 -20.839844 0.000000 0.000000 -29.346762 -0.243963 -0.438576 -2.520846 -1.255050 0.218350 -4.754607 -0.109226 -0.002657 -70.200203 28.513988 -1.416685 -32.296219 -18.851469 23.991709 9.426404 -23.018305 -7.185228 4.754607 0.109226 -0.002676 85.256683 -30.840042 -11.849254 68.671524 18.452063 19.858423 -2.821246 4.980806 18.482035 -15.184455 -3.837413 3.033129 66.703705 -9.705129 4.778714 -36.147289 5.062509 9.502109 4.216589 -11.929623 -3.577974 76.649834 -2.531342 -2.076871 -12.641649 -10.581698 3.260371 
-8.968771 37.754452 -192.490173 -11.894842 0.410905 -8.055301 37.015476 -4.038667 4.131560 -20.839844 0.000000 0.000000 -28.931803 1.358935 3.486504 -2.520846 -1.255050 0.218350 -4.754607 -0.109226 -0.002657 -72.075981 17.593245 -0.612554 -37.396435 -17.089853 19.620394 9.171994 -24.338026 -4.552011 4.754607 0.109226 -0.002676 86.164528 -36.760166 -16.577908 65.668549 16.974789 19.178633 -1.445934 2.369298 16.701658 -8.157112 -4.108319 2.801055 63.067719 -10.367860 5.314982 -37.441067 4.823456 8.234666 -9.235506 -12.252210 -0.274019 79.584770 -6.073833 -1.823552 -16.779795 -10.667399 2.547399 
-9.595449 38.426117 -188.875504 -11.601665 0.239153 -8.388941 36.374405 -1.597295 0.704896 -20.839844 0.000000 0.000000 -28.172312 3.263017 8.304944 -2.520846 -1.255050 0.218350 -4.754607 -0.109226 -0.002657 -72.274384 8.856695 -0.289086 -43.527256 -15.610580 15.700856 10.123021 -25.310265 -2.649482 4.754607 0.109226 -0.002676 84.211639 -43.527985 -20.002211 65.920471 18.254059 19.415459 -0.090890 2.383889 16.408899 -0.973578 -2.592399 3.679233 58.756390 -11.140585 5.133031 -35.123722 3.938295 5.189536 -20.752647 -9.859736 3.202400 77.219872 -8.143907 -1.669631 -21.002213 -11.544296 3.485026 
-10.359043 39.172401 -185.091278 -11.748726 -0.611907 -9.189154 36.100967 1.171005 -1.991097 -20.839844 0.000000 0.000000 -28.192688 5.239377 12.990261 -2.520846 -1.255050 0.218350 -4.754607 -0.109226 -0.002657 -69.452126 3.987535 0.000974 -52.619709 -16.906946 12.351174 13.003664 -24.124521 -2.977718 4.754607 0.109226 -0.002676 81.611794 -49.085453 -22.512589 67.309593 19.381668 21.102209 2.038716 3.827184 19.123718 5.488369 -1.305383 4.100923 55.164391 -11.126140 5.927678 -27.126162 5.173974 2.006351 -27.592880 -5.263072 6.418110 70.618935 -9.432316 0.016156 -24.574041 -11.719615 5.508299 
-11.230076 39.787212 -181.055237 -12.691455 -1.733945 -10.400770 36.378471 3.278727 -3.380534 -20.839844 0.000000 0.000000 -28.426447 6.971085 16.481756 -2.520846 -1.255050 0.218350 -4.754607 -0.109226 -0.002657 -64.248909 2.676130 0.100479 -64.946075 -20.521557 8.637341 16.239016 -20.772224 -3.913679 4.754607 0.109226 -0.002676 80.380920 -52.272881 -24.574011 69.579971 19.382441 21.473232 4.590862 4.343915 21.100157 10.385448 -0.731337 3.839982 54.485851 -10.562610 7.203443 -13.596046 7.736916 0.325105 -28.943104 -0.469152 9.208850 62.616871 -10.217768 2.742486 -24.988386 -11.580241 9.682639 
-12.140854 40.029877 -176.892242 -14.308353 -2.271123 -10.749110 37.123981 3.955437 -4.047855 -20.839844 0.000000 0.000000 -28.485147 7.929142 17.925852 -2.520846 -1.255050 0.218350 -4.754607 -0.109226 -0.002657 -59.524204 2.983741 -0.144627 -76.822754 -23.252743 6.231202 18.446650 -17.914108 -1.587294 4.754607 0.109226 -0.002676 80.678429 -52.411785 -25.164991 71.220718 19.036877 20.595680 5.004762 4.729265 20.949806 12.336535 -0.506683 3.214536 58.597572 -9.791871 6.702756 -1.246491 8.886039 -0.719565 -26.159021 1.844809 10.780524 56.625923 -10.168766 3.806617 -21.464077 -12.541595 13.157403 
-13.056403 39.785183 -172.755661 -15.977166 -2.037352 -9.973482 37.779327 3.428971 -3.972643 -20.839844 0.000000 0.000000 -28.450890 7.560481 17.444229 -2.520846 -1.255050 0.218350 -4.754607 -0.109226 -0.002657 -57.012257 3.522974 -0.318225 -84.479416 -24.403723 5.957590 19.614632 -16.795952 2.443629 4.754607 0.109226 -0.002676 81.590034 -50.113705 -23.846548 71.940155 19.089458 19.904449 3.263713 5.650860 20.260124 10.067731 -0.429599 2.411423 66.699440 -8.492890 4.686876 1.593783 8.772131 -2.306066 -21.780165 0.721247 9.575862 55.309937 -8.575075 2.825325 -19.155188 -12.483644 11.172880 
-13.955863 39.198296 -168.842972 -16.531376 -1.750733 -8.777578 37.487892 2.585818 -2.296978 -20.839844 0.000000 0.000000 -28.797180 5.861409 16.090460 -2.520846 -1.255050 0.218350 -4.754607 -0.109226 -0.002657 -56.437466 4.070715 -0.233107 -87.794365 -24.982327 5.334670 18.512014 -16.509222 3.735258 4.754607 0.109226 -0.002676 82.495644 -46.215691 -21.260092 72.680267 19.298326 19.658892 2.033427 6.412627 20.171436 2.561395 0.545578 2.387548 75.496483 -6.665252 3.468113 -4.323905 9.745773 -4.343988 -17.903461 -2.245978 5.924713 58.058533 -5.583713 1.499724 -23.066189 -9.993546 4.185231 
-14.815508 38.663200 -165.286163 -15.606716 -2.125736 -7.453294 36.327091 2.153857 0.823891 -20.839844 0.000000 0.000000 -30.155893 3.776982 13.862457 -2.520846 -1.255050 0.218350 -4.754607 -0.109226 -0.002657 -57.955544 4.979988 -0.065888 -86.294235 -25.098410 4.990521 15.953065 -16.436213 2.619891 4.754607 0.109226 -0.002676 82.687248 -40.360054 -17.538134 72.699356 19.022251 20.052881 1.442362 7.271865 20.904036 -9.449923 3.602266 3.363670 80.949921 -4.841269 3.771116 -12.692052 11.896637 -4.919089 -14.798211 -3.953812 2.841745 61.471001 -2.771981 0.841454 -30.335680 -7.161698 -0.970413 
-15.590027 38.431702 -161.759796 -15.032043 -2.310797 -5.024273 35.752728 1.400360 3.112730 -20.839844 0.000000 0.000000 -31.739473 2.393569 9.879668 -2.520846 -1.255050 0.218350 -4.754607 -0.109226 -0.002657 -60.907814 6.466168 0.251349 -79.719093 -24.997721 6.136614 14.503963 -16.825024 0.228297 4.754607 0.109226 -0.002676 82.342911 -33.823990 -13.605521 72.246986 18.594448 20.204430 -0.692795 7.981508 20.978691 -20.866489 6.600492 4.122873 79.422058 -4.177857 3.709717 -19.605347 11.978589 -4.216683 -10.257636 -4.040932 1.515488 62.948689 -1.142420 -0.001240 -34.001637 -7.347564 -0.605844 
-16.152840 38.503792 -157.804977 -16.320835 -0.984079 -1.118156 36.604630 -0.744349 3.357349 -20.839844 0.000000 0.000000 -32.075550 1.618432 4.650258 -2.520846 -1.255050 0.218350 -4.754607 -0.109226 -0.002657 -63.868080 7.885128 0.589255 -69.319649 -24.146429 8.891717 13.293001 -18.142223 -2.169253 4.754607 0.109226 -0.002676 82.899834 -29.503532 -11.422900 73.497330 18.200851 18.810780 -4.135896 7.483966 19.489553 -25.285734 6.901619 5.079373 70.535492 -6.059729 1.742140 -22.603867 7.570055 -5.430374 -3.393984 -4.701113 0.455632 63.448051 -0.331457 -1.425540 -29.081736 -9.984099 3.279903 
